<svg xmlns="http://www.w3.org/2000/svg" xmlns:xlink="http://www.w3.org/1999/xlink" width="512" zoomAndPan="magnify" viewBox="0 0 384 383.999986" height="512" preserveAspectRatio="xMidYMid meet" version="1.0"><defs><g/><clipPath id="5c00e2a52a"><path d="M 100.476562 83.316406 L 263 83.316406 L 263 258.066406 L 100.476562 258.066406 Z M 100.476562 83.316406 " clip-rule="nonzero"/></clipPath></defs><g clip-path="url(#5c00e2a52a)"><path fill="#ff8c00" d="M 181.441406 83.742188 C 131.027344 83.742188 100.769531 96.445312 100.769531 148.816406 C 100.769531 164.609375 106.882812 181.777344 115.796875 198.027344 C 118.125 202.296875 120.644531 206.492188 123.296875 210.585938 C 136.015625 230.203125 151.765625 247.492188 164.015625 257.972656 L 164.066406 255.269531 L 164.085938 254.417969 L 164.367188 239.621094 L 164.386719 238.605469 L 164.625 225.949219 L 164.65625 224.269531 L 164.886719 212.59375 L 164.917969 210.917969 L 165.199219 196.382812 L 165.199219 195.296875 C 160.761719 194.273438 157.457031 190.320312 157.457031 185.570312 L 156.828125 178.460938 L 153.34375 178.460938 C 152.980469 179.394531 152.308594 180.199219 151.414062 180.792969 C 150.523438 181.382812 149.417969 181.746094 148.203125 181.816406 C 148.074219 181.835938 147.941406 181.835938 147.8125 181.835938 C 144.628906 181.835938 143.183594 181.984375 143.183594 177.015625 C 143.183594 172.015625 144.628906 172.179688 147.8125 172.179688 C 147.941406 172.179688 148.074219 172.179688 148.203125 172.199219 C 150.621094 172.320312 152.628906 173.683594 153.34375 175.542969 L 156.574219 175.542969 L 155.140625 159.257812 L 152.417969 159.257812 C 151.714844 161.113281 149.730469 162.460938 147.339844 162.601562 L 147.339844 162.609375 C 147.207031 162.632812 147.070312 162.632812 146.949219 162.632812 L 146.394531 162.632812 C 143.59375 162.632812 142.320312 162.492188 142.320312 157.800781 L 142.320312 157.792969 C 142.320312 156.074219 142.492188 154.980469 142.851562 154.269531 C 143.523438 152.914062 144.859375 152.972656 146.949219 152.972656 C 147.070312 152.972656 147.207031 152.972656 147.339844 152.992188 C 149.730469 153.132812 151.714844 154.5 152.417969 156.347656 L 154.878906 156.347656 L 153.441406 140.054688 L 151.574219 140.054688 C 150.875 141.898438 148.894531 143.265625 146.484375 143.40625 C 146.367188 143.417969 146.226562 143.417969 146.09375 143.417969 C 142.914062 143.417969 141.476562 143.578125 141.476562 138.597656 C 141.476562 133.617188 142.914062 133.777344 146.09375 133.777344 C 146.226562 133.777344 146.367188 133.777344 146.484375 133.789062 C 148.894531 133.917969 150.875 135.292969 151.566406 137.140625 L 153.183594 137.140625 L 151.96875 123.328125 C 151.96875 120.347656 151.777344 115.980469 157.289062 115.980469 C 157.289062 115.980469 159.476562 115.980469 162.941406 115.980469 C 166.273438 115.980469 173.300781 108.160156 180.960938 107.527344 L 180.960938 107.464844 C 181.121094 107.464844 181.28125 107.488281 181.453125 107.496094 C 181.613281 107.488281 181.761719 107.464844 181.925781 107.464844 L 181.925781 107.527344 C 189.582031 108.160156 196.621094 115.980469 199.945312 115.980469 C 203.417969 115.980469 205.605469 115.980469 205.605469 115.980469 C 211.117188 115.980469 210.925781 120.347656 210.925781 123.328125 L 209.703125 137.140625 L 211.308594 137.140625 C 212 135.292969 214 133.929688 216.386719 133.789062 L 216.398438 133.789062 C 216.527344 133.777344 216.660156 133.777344 216.789062 133.777344 C 218.859375 133.777344 220.183594 133.707031 220.867188 135.042969 C 221.238281 135.757812 221.417969 136.851562 221.417969 138.597656 C 221.417969 143.578125 219.972656 143.417969 216.789062 143.417969 C 216.660156 143.417969 216.527344 143.417969 216.398438 143.40625 L 216.386719 143.394531 C 214 143.253906 212 141.898438 211.308594 140.054688 L 209.449219 140.054688 L 208.003906 156.347656 L 210.476562 156.347656 C 211.167969 154.5 213.15625 153.132812 215.542969 152.992188 L 215.554688 152.992188 C 215.683594 152.972656 215.816406 152.972656 215.945312 152.972656 C 217.34375 152.972656 218.394531 152.941406 219.148438 153.335938 C 220.121094 153.816406 220.574219 155 220.574219 157.792969 C 220.574219 160.300781 220.214844 161.496094 219.449219 162.078125 C 218.695312 162.660156 217.542969 162.632812 215.945312 162.632812 C 215.816406 162.632812 215.683594 162.632812 215.554688 162.609375 L 215.542969 162.601562 C 213.15625 162.460938 211.167969 161.105469 210.476562 159.257812 L 207.753906 159.257812 L 206.320312 175.542969 L 209.550781 175.542969 C 210.265625 173.683594 212.273438 172.328125 214.671875 172.199219 C 214.8125 172.179688 214.941406 172.179688 215.074219 172.179688 C 218.253906 172.179688 219.699219 172.015625 219.699219 177.015625 C 219.699219 181.988281 218.253906 181.835938 215.074219 181.835938 C 214.941406 181.835938 214.8125 181.835938 214.671875 181.816406 C 212.273438 181.683594 210.265625 180.320312 209.550781 178.460938 L 206.058594 178.460938 L 205.433594 185.570312 C 205.433594 190.320312 202.121094 194.273438 197.695312 195.296875 L 197.695312 196.441406 L 198.878906 257.972656 C 198.808594 258.03125 198.738281 258.09375 198.667969 258.152344 C 198.738281 258.09375 198.808594 258.03125 198.878906 257.972656 C 211.117188 247.480469 226.878906 230.203125 239.589844 210.585938 C 242.238281 206.492188 244.769531 202.296875 247.097656 198.027344 C 256.011719 181.777344 262.117188 164.609375 262.117188 148.816406 C 262.117188 96.445312 231.867188 83.742188 181.441406 83.742188 " fill-opacity="1" fill-rule="nonzero"/></g><g fill="#ff8c00" fill-opacity="1"><g transform="translate(28.885704, 287.349112)"><g><path d="M 41.296875 -32.078125 L 2.640625 -32.078125 L 2.640625 -38.609375 L 41.296875 -38.609375 Z M 18.703125 -30.65625 L 18.703125 0 L 25.234375 0 L 25.234375 -29.390625 Z M 18.703125 -30.65625 "/></g></g></g><g fill="#ff8c00" fill-opacity="1"><g transform="translate(72.767077, 287.349112)"><g><path d="M 27.703125 -27.765625 L 32.078125 -27.765625 L 22.484375 0 L 17.328125 -15.0625 L 12.0625 0 L 2.578125 -27.765625 L 6.953125 -27.765625 L 12.109375 -12.6875 L 15.109375 -21.4375 L 17.328125 -27.765625 L 19.484375 -21.4375 L 22.484375 -12.6875 Z M 27.703125 -27.765625 "/></g></g></g><g fill="#ff8c00" fill-opacity="1"><g transform="translate(107.48235, 287.349112)"><g><path d="M 28.59375 -7 C 27.40625 -4.894531 25.75 -3.203125 23.625 -1.921875 C 21.5 -0.640625 19.132812 0 16.53125 0 C 14.601562 0 12.796875 -0.359375 11.109375 -1.078125 C 9.421875 -1.796875 7.945312 -2.785156 6.6875 -4.046875 C 5.425781 -5.316406 4.4375 -6.796875 3.71875 -8.484375 C 3 -10.171875 2.640625 -11.960938 2.640625 -13.859375 C 2.640625 -15.785156 3 -17.59375 3.71875 -19.28125 C 4.4375 -20.96875 5.425781 -22.441406 6.6875 -23.703125 C 7.945312 -24.960938 9.421875 -25.953125 11.109375 -26.671875 C 12.796875 -27.398438 14.601562 -27.765625 16.53125 -27.765625 C 18.4375 -27.765625 20.226562 -27.398438 21.90625 -26.671875 C 23.59375 -25.953125 25.066406 -24.960938 26.328125 -23.703125 C 27.597656 -22.441406 28.59375 -20.96875 29.3125 -19.28125 C 30.03125 -17.59375 30.390625 -15.785156 30.390625 -13.859375 C 30.390625 -12.941406 30.300781 -11.992188 30.125 -11.015625 L 7.90625 -11.015625 C 8.5 -9.179688 9.582031 -7.675781 11.15625 -6.5 C 12.738281 -5.320312 14.53125 -4.734375 16.53125 -4.734375 C 18.039062 -4.734375 19.4375 -5.066406 20.71875 -5.734375 C 22.007812 -6.398438 23.054688 -7.296875 23.859375 -8.421875 Z M 16.53125 -22.96875 C 15.445312 -22.96875 14.410156 -22.78125 13.421875 -22.40625 C 12.441406 -22.039062 11.554688 -21.53125 10.765625 -20.875 C 9.984375 -20.226562 9.316406 -19.46875 8.765625 -18.59375 C 8.222656 -17.71875 7.847656 -16.769531 7.640625 -15.75 L 25.5 -15.75 C 25.28125 -16.769531 24.890625 -17.71875 24.328125 -18.59375 C 23.765625 -19.46875 23.085938 -20.226562 22.296875 -20.875 C 21.515625 -21.53125 20.628906 -22.039062 19.640625 -22.40625 C 18.660156 -22.78125 17.625 -22.96875 16.53125 -22.96875 Z M 16.53125 -22.96875 "/></g></g></g><g fill="#ff8c00" fill-opacity="1"><g transform="translate(140.617267, 287.349112)"><g><path d="M 2.6875 0 L 2.6875 -40.71875 L 7.421875 -40.71875 L 7.421875 0 Z M 2.6875 0 "/></g></g></g><g fill="#ff8c00" fill-opacity="1"><g transform="translate(150.626224, 287.349112)"><g><path d="M 21.546875 -27.765625 L 27.171875 -27.765625 L 14.859375 0 L 2.640625 -27.765625 L 8.265625 -27.765625 L 14.859375 -12.6875 Z M 21.546875 -27.765625 "/></g></g></g><g fill="#ff8c00" fill-opacity="1"><g transform="translate(180.389703, 287.349112)"><g><path d="M 28.59375 -7 C 27.40625 -4.894531 25.75 -3.203125 23.625 -1.921875 C 21.5 -0.640625 19.132812 0 16.53125 0 C 14.601562 0 12.796875 -0.359375 11.109375 -1.078125 C 9.421875 -1.796875 7.945312 -2.785156 6.6875 -4.046875 C 5.425781 -5.316406 4.4375 -6.796875 3.71875 -8.484375 C 3 -10.171875 2.640625 -11.960938 2.640625 -13.859375 C 2.640625 -15.785156 3 -17.59375 3.71875 -19.28125 C 4.4375 -20.96875 5.425781 -22.441406 6.6875 -23.703125 C 7.945312 -24.960938 9.421875 -25.953125 11.109375 -26.671875 C 12.796875 -27.398438 14.601562 -27.765625 16.53125 -27.765625 C 18.4375 -27.765625 20.226562 -27.398438 21.90625 -26.671875 C 23.59375 -25.953125 25.066406 -24.960938 26.328125 -23.703125 C 27.597656 -22.441406 28.59375 -20.96875 29.3125 -19.28125 C 30.03125 -17.59375 30.390625 -15.785156 30.390625 -13.859375 C 30.390625 -12.941406 30.300781 -11.992188 30.125 -11.015625 L 7.90625 -11.015625 C 8.5 -9.179688 9.582031 -7.675781 11.15625 -6.5 C 12.738281 -5.320312 14.53125 -4.734375 16.53125 -4.734375 C 18.039062 -4.734375 19.4375 -5.066406 20.71875 -5.734375 C 22.007812 -6.398438 23.054688 -7.296875 23.859375 -8.421875 Z M 16.53125 -22.96875 C 15.445312 -22.96875 14.410156 -22.78125 13.421875 -22.40625 C 12.441406 -22.039062 11.554688 -21.53125 10.765625 -20.875 C 9.984375 -20.226562 9.316406 -19.46875 8.765625 -18.59375 C 8.222656 -17.71875 7.847656 -16.769531 7.640625 -15.75 L 25.5 -15.75 C 25.28125 -16.769531 24.890625 -17.71875 24.328125 -18.59375 C 23.765625 -19.46875 23.085938 -20.226562 22.296875 -20.875 C 21.515625 -21.53125 20.628906 -22.039062 19.640625 -22.40625 C 18.660156 -22.78125 17.625 -22.96875 16.53125 -22.96875 Z M 16.53125 -22.96875 "/></g></g></g><g fill="#ff8c00" fill-opacity="1"><g transform="translate(213.52462, 287.349112)"><g><path d="M 23.75 -16.75 L 23.75 -7.953125 L 8.53125 -23.703125 L 8.53125 0 L 2.6875 0 L 2.6875 -38.609375 Z M 25.59375 -38.609375 L 31.4375 -38.609375 L 31.4375 0 L 25.59375 -6.0625 Z M 25.59375 -38.609375 "/></g></g></g><g fill="#ff8c00" fill-opacity="1"><g transform="translate(247.555071, 287.349112)"><g><path d="M 16.59375 -27.765625 C 18.488281 -27.765625 20.28125 -27.398438 21.96875 -26.671875 C 23.65625 -25.953125 25.128906 -24.960938 26.390625 -23.703125 C 27.648438 -22.441406 28.640625 -20.96875 29.359375 -19.28125 C 30.078125 -17.59375 30.4375 -15.785156 30.4375 -13.859375 C 30.4375 -11.960938 30.078125 -10.171875 29.359375 -8.484375 C 28.640625 -6.796875 27.648438 -5.316406 26.390625 -4.046875 C 25.128906 -2.785156 23.65625 -1.796875 21.96875 -1.078125 C 20.28125 -0.359375 18.488281 0 16.59375 0 C 14.65625 0 12.84375 -0.359375 11.15625 -1.078125 C 9.476562 -1.796875 8.003906 -2.785156 6.734375 -4.046875 C 5.472656 -5.316406 4.484375 -6.796875 3.765625 -8.484375 C 3.046875 -10.171875 2.6875 -11.960938 2.6875 -13.859375 C 2.6875 -15.785156 3.046875 -17.59375 3.765625 -19.28125 C 4.484375 -20.96875 5.472656 -22.441406 6.734375 -23.703125 C 8.003906 -24.960938 9.476562 -25.953125 11.15625 -26.671875 C 12.84375 -27.398438 14.65625 -27.765625 16.59375 -27.765625 Z M 25.703125 -13.859375 C 25.703125 -15.117188 25.460938 -16.300781 24.984375 -17.40625 C 24.515625 -18.507812 23.867188 -19.472656 23.046875 -20.296875 C 22.222656 -21.128906 21.253906 -21.78125 20.140625 -22.25 C 19.035156 -22.726562 17.851562 -22.96875 16.59375 -22.96875 C 15.332031 -22.96875 14.144531 -22.726562 13.03125 -22.25 C 11.925781 -21.78125 10.960938 -21.128906 10.140625 -20.296875 C 9.316406 -19.472656 8.664062 -18.507812 8.1875 -17.40625 C 7.71875 -16.300781 7.484375 -15.117188 7.484375 -13.859375 C 7.484375 -12.585938 7.71875 -11.398438 8.1875 -10.296875 C 8.664062 -9.191406 9.316406 -8.222656 10.140625 -7.390625 C 10.960938 -6.566406 11.925781 -5.914062 13.03125 -5.4375 C 14.144531 -4.96875 15.332031 -4.734375 16.59375 -4.734375 C 17.851562 -4.734375 19.035156 -4.96875 20.140625 -5.4375 C 21.253906 -5.914062 22.222656 -6.566406 23.046875 -7.390625 C 23.867188 -8.222656 24.515625 -9.191406 24.984375 -10.296875 C 25.460938 -11.398438 25.703125 -12.585938 25.703125 -13.859375 Z M 25.703125 -13.859375 "/></g></g></g><g fill="#ff8c00" fill-opacity="1"><g transform="translate(280.479288, 287.349112)"><g><path d="M 15.109375 -32.5 L 15.109375 -27.765625 L 11.265625 -27.765625 L 11.265625 0 L 6.53125 0 L 6.53125 -27.765625 L 2.6875 -27.765625 L 2.6875 -32.5 L 6.53125 -32.5 L 6.53125 -40.71875 L 11.265625 -40.71875 L 11.265625 -32.5 Z M 15.109375 -32.5 "/></g></g></g><g fill="#ff8c00" fill-opacity="1"><g transform="translate(298.284678, 287.349112)"><g><path d="M 28.59375 -7 C 27.40625 -4.894531 25.75 -3.203125 23.625 -1.921875 C 21.5 -0.640625 19.132812 0 16.53125 0 C 14.601562 0 12.796875 -0.359375 11.109375 -1.078125 C 9.421875 -1.796875 7.945312 -2.785156 6.6875 -4.046875 C 5.425781 -5.316406 4.4375 -6.796875 3.71875 -8.484375 C 3 -10.171875 2.640625 -11.960938 2.640625 -13.859375 C 2.640625 -15.785156 3 -17.59375 3.71875 -19.28125 C 4.4375 -20.96875 5.425781 -22.441406 6.6875 -23.703125 C 7.945312 -24.960938 9.421875 -25.953125 11.109375 -26.671875 C 12.796875 -27.398438 14.601562 -27.765625 16.53125 -27.765625 C 18.4375 -27.765625 20.226562 -27.398438 21.90625 -26.671875 C 23.59375 -25.953125 25.066406 -24.960938 26.328125 -23.703125 C 27.597656 -22.441406 28.59375 -20.96875 29.3125 -19.28125 C 30.03125 -17.59375 30.390625 -15.785156 30.390625 -13.859375 C 30.390625 -12.941406 30.300781 -11.992188 30.125 -11.015625 L 7.90625 -11.015625 C 8.5 -9.179688 9.582031 -7.675781 11.15625 -6.5 C 12.738281 -5.320312 14.53125 -4.734375 16.53125 -4.734375 C 18.039062 -4.734375 19.4375 -5.066406 20.71875 -5.734375 C 22.007812 -6.398438 23.054688 -7.296875 23.859375 -8.421875 Z M 16.53125 -22.96875 C 15.445312 -22.96875 14.410156 -22.78125 13.421875 -22.40625 C 12.441406 -22.039062 11.554688 -21.53125 10.765625 -20.875 C 9.984375 -20.226562 9.316406 -19.46875 8.765625 -18.59375 C 8.222656 -17.71875 7.847656 -16.769531 7.640625 -15.75 L 25.5 -15.75 C 25.28125 -16.769531 24.890625 -17.71875 24.328125 -18.59375 C 23.765625 -19.46875 23.085938 -20.226562 22.296875 -20.875 C 21.515625 -21.53125 20.628906 -22.039062 19.640625 -22.40625 C 18.660156 -22.78125 17.625 -22.96875 16.53125 -22.96875 Z M 16.53125 -22.96875 "/></g></g></g><g fill="#ff8c00" fill-opacity="1"><g transform="translate(331.419595, 287.349112)"><g><path d="M 13.328125 -15.859375 C 14.097656 -15.535156 14.9375 -15.191406 15.84375 -14.828125 C 16.757812 -14.460938 17.613281 -13.972656 18.40625 -13.359375 C 19.195312 -12.742188 19.851562 -11.96875 20.375 -11.03125 C 20.90625 -10.101562 21.171875 -8.921875 21.171875 -7.484375 C 21.171875 -5.160156 20.394531 -3.332031 18.84375 -2 C 17.300781 -0.664062 14.988281 0 11.90625 0 C 6.394531 0 3.359375 -1.84375 2.796875 -5.53125 L 7.421875 -6.90625 C 7.421875 -6.582031 7.460938 -6.289062 7.546875 -6.03125 C 7.640625 -5.769531 7.832031 -5.539062 8.125 -5.34375 C 8.425781 -5.15625 8.875 -5.003906 9.46875 -4.890625 C 10.070312 -4.785156 10.882812 -4.734375 11.90625 -4.734375 C 12.957031 -4.734375 13.78125 -4.820312 14.375 -5 C 14.976562 -5.175781 15.425781 -5.394531 15.71875 -5.65625 C 16.019531 -5.925781 16.203125 -6.21875 16.265625 -6.53125 C 16.335938 -6.84375 16.375 -7.160156 16.375 -7.484375 C 16.375 -8.078125 16.285156 -8.546875 16.109375 -8.890625 C 15.941406 -9.242188 15.664062 -9.550781 15.28125 -9.8125 C 14.894531 -10.082031 14.394531 -10.332031 13.78125 -10.5625 C 13.164062 -10.789062 12.414062 -11.082031 11.53125 -11.4375 L 10.421875 -11.90625 C 9.648438 -12.21875 8.804688 -12.550781 7.890625 -12.90625 C 6.984375 -13.257812 6.144531 -13.742188 5.375 -14.359375 C 4.601562 -14.972656 3.953125 -15.742188 3.421875 -16.671875 C 2.898438 -17.597656 2.640625 -18.78125 2.640625 -20.21875 C 2.640625 -22.539062 3.421875 -24.378906 4.984375 -25.734375 C 6.546875 -27.085938 8.867188 -27.765625 11.953125 -27.765625 C 17.398438 -27.765625 20.421875 -25.9375 21.015625 -22.28125 L 16.375 -20.859375 C 16.375 -21.171875 16.332031 -21.46875 16.25 -21.75 C 16.164062 -22.03125 15.972656 -22.257812 15.671875 -22.4375 C 15.367188 -22.613281 14.925781 -22.753906 14.34375 -22.859375 C 13.769531 -22.960938 12.972656 -23.015625 11.953125 -23.015625 C 10.898438 -23.015625 10.070312 -22.925781 9.46875 -22.75 C 8.875 -22.570312 8.421875 -22.34375 8.109375 -22.0625 C 7.796875 -21.78125 7.601562 -21.484375 7.53125 -21.171875 C 7.457031 -20.859375 7.421875 -20.539062 7.421875 -20.21875 C 7.421875 -19.625 7.507812 -19.148438 7.6875 -18.796875 C 7.863281 -18.453125 8.144531 -18.144531 8.53125 -17.875 C 8.914062 -17.613281 9.414062 -17.367188 10.03125 -17.140625 C 10.644531 -16.910156 11.375 -16.625 12.21875 -16.28125 Z M 13.328125 -15.859375 "/></g></g></g></svg>